# Blender 4.1.1
# www.blender.org
mtllib Ceiling.mtl
o Ceiling
v -1.000000 1.800000 -1.000000
v 1.000000 1.800000 -1.000000
v -1.000000 1.800000 1.000000
v 1.000000 1.800000 1.000000
vn -0.0000 -1.0000 -0.0000
vt 0.000000 0.000000
vt 1.000000 0.000000
vt 1.000000 1.000000
vt 0.000000 1.000000
s 0
f 1/1/1 2/2/1 4/3/1 3/4/1
o Ceiling-colonly
v -1.000000 1.800000 -1.000000
v 1.000000 1.800000 -1.000000
v -1.000000 1.800000 1.000000
v 1.000000 1.800000 1.000000
v -1.000000 2.000000 1.000000
v -1.000000 2.000000 -1.000000
v 1.000000 2.000000 -1.000000
v 1.000000 2.000000 1.000000
vn -0.0000 -1.0000 -0.0000
vn -0.0000 1.0000 -0.0000
vn -1.0000 -0.0000 -0.0000
vn -0.0000 -0.0000 1.0000
vn -0.0000 -0.0000 -1.0000
vn 1.0000 -0.0000 -0.0000
vt 0.000000 0.000000
vt 1.000000 0.000000
vt 1.000000 1.000000
vt 0.000000 1.000000
s 0
f 5/5/2 6/6/2 8/7/2 7/8/2
f 10/5/3 9/8/3 12/7/3 11/6/3
f 7/8/4 9/8/4 10/5/4 5/5/4
f 8/7/5 12/7/5 9/8/5 7/8/5
f 5/5/6 10/5/6 11/6/6 6/6/6
f 6/6/7 11/6/7 12/7/7 8/7/7
